<?xml version="1.0" encoding="iso-8859-1"?>
<!-- Generator: Adobe Illustrator 19.0.0, SVG Export Plug-In . SVG Version: 6.00 Build 0)  -->
<svg version="1.1" id="Capa_1" xmlns="http://www.w3.org/2000/svg" xmlns:xlink="http://www.w3.org/1999/xlink" x="0px" y="0px"
	 viewBox="0 0 480 480" style="enable-background:new 0 0 480 480;" xml:space="preserve">
<g>
	<path style="fill:#E9A868;" d="M26.667,360h26.667v-66.667H160h13.333H280V360h26.667v-80v-26.667h120V280v80h26.667V240H26.667
		V360z M53.333,253.333H280V280H53.333V253.333z"/>
	<polygon style="fill:#D6805C;" points="280,360 280,400 173.333,400 160,400 53.333,400 53.333,360 26.667,360 26.667,426.667 
		306.667,426.667 306.667,360 	"/>
	<polygon style="fill:#D6805C;" points="426.667,400 426.667,426.667 453.333,426.667 453.333,360 426.667,360 	"/>
	<path style="fill:#D6805C;" d="M440,211.833c0,0.828-0.672,1.5-1.5,1.5h-37c-0.828,0-1.5-0.672-1.5-1.5c0,0.828-0.672,1.5-1.5,1.5
		h-37c-0.828,0-1.5-0.672-1.5-1.5c0,0.828-0.672,1.5-1.5,1.5h-37c-0.828,0-1.5-0.672-1.5-1.5c0,0.828-0.672,1.5-1.5,1.5h-37
		c-0.828,0-1.5-0.672-1.5-1.5c0,0.828-0.672,1.5-1.5,1.5h-37c-0.828,0-1.5-0.672-1.5-1.5c0,0.828-0.672,1.5-1.5,1.5h-37
		c-0.828,0-1.5-0.672-1.5-1.5c0,0.828-0.672,1.5-1.5,1.5h-37c-0.828,0-1.5-0.672-1.5-1.5c0,0.828-0.672,1.5-1.5,1.5h-37
		c-0.828,0-1.5-0.672-1.5-1.5c0,0.828-0.672,1.5-1.5,1.5h-37c-0.828,0-1.5-0.672-1.5-1.5c0,0.828-0.672,1.5-1.5,1.5h-37
		c-0.828,0-1.5-0.672-1.5-1.5c0,0.828-0.672,1.5-1.5,1.5H26.667V240h426.667v-26.667H441.5C440.672,213.333,440,212.662,440,211.833
		z"/>
	<polygon style="fill:#95FFFF;" points="306.667,280 306.667,360 306.667,426.667 426.667,426.667 426.667,400 	"/>
	<path style="fill:#F2D057;" d="M80,93.333H40v118.5c0,0.828,0.672,1.5,1.5,1.5h37c0.828,0,1.5-0.672,1.5-1.5V93.333z"/>
	<path style="fill:#F2D057;" d="M160,93.333h-40v118.5c0,0.828,0.672,1.5,1.5,1.5h37c0.828,0,1.5-0.672,1.5-1.5V93.333z"/>
	<path style="fill:#BF515A;" d="M40,211.833v-118.5h40v118.5c0,0.828,0.672,1.5,1.5,1.5h37c0.828,0,1.5-0.672,1.5-1.5v-118.5h40
		v118.5c0,0.828,0.672,1.5,1.5,1.5h37c0.828,0,1.5-0.672,1.5-1.5v-118.5h40v118.5c0,0.828,0.672,1.5,1.5,1.5h37
		c0.828,0,1.5-0.672,1.5-1.5v-118.5h40v118.5c0,0.828,0.672,1.5,1.5,1.5h37c0.828,0,1.5-0.672,1.5-1.5v-118.5h40v118.5
		c0,0.828,0.672,1.5,1.5,1.5h37c0.828,0,1.5-0.672,1.5-1.5v-118.5h13.333v-40H26.667v40H3c-1.657,0-3,1.343-3,3v115.5
		c0,0.828,0.672,1.5,1.5,1.5h25.167H38.5C39.328,213.333,40,212.662,40,211.833z"/>
	<path style="fill:#F2D057;" d="M240,93.333h-40v118.5c0,0.828,0.672,1.5,1.5,1.5h37c0.828,0,1.5-0.672,1.5-1.5V93.333z"/>
	<path style="fill:#F2D057;" d="M320,93.333h-40v118.5c0,0.828,0.672,1.5,1.5,1.5h37c0.828,0,1.5-0.672,1.5-1.5V93.333z"/>
	<path style="fill:#F2D057;" d="M400,93.333h-40v118.5c0,0.828,0.672,1.5,1.5,1.5h37c0.828,0,1.5-0.672,1.5-1.5V93.333z"/>
	<path style="fill:#F2D057;" d="M477,93.333h-23.667H440v118.5c0,0.828,0.672,1.5,1.5,1.5h11.833H478.5c0.828,0,1.5-0.672,1.5-1.5
		v-115.5C480,94.676,478.657,93.333,477,93.333z"/>
	<polygon style="fill:#95FFFF;" points="160,400 53.333,293.333 53.333,360 53.333,400 	"/>
	<polygon style="fill:#95FFFF;" points="173.333,400 280,400 173.333,293.333 	"/>
	<rect x="53.333" y="253.333" style="fill:#6EB1E2;" width="226.667" height="26.667"/>
	<rect x="306.667" y="253.333" style="fill:#6EB1E2;" width="120" height="26.667"/>
	<polygon style="fill:#80D7F0;" points="160,400 160,293.333 53.333,293.333 	"/>
	<polygon style="fill:#80D7F0;" points="280,400 280,360 280,293.333 173.333,293.333 	"/>
	<rect x="160" y="293.333" style="fill:#6EB1E2;" width="13.333" height="106.667"/>
	<polygon style="fill:#80D7F0;" points="426.667,400 426.667,360 426.667,280 306.667,280 	"/>
</g>
<g>
</g>
<g>
</g>
<g>
</g>
<g>
</g>
<g>
</g>
<g>
</g>
<g>
</g>
<g>
</g>
<g>
</g>
<g>
</g>
<g>
</g>
<g>
</g>
<g>
</g>
<g>
</g>
<g>
</g>
</svg>
